<svg width="100" height="100" viewBox="1321.5 3381.5 100 100" fill="none" xmlns="http://www.w3.org/2000/svg" xmlns:xlink="http://www.w3.org/1999/xlink"><g clip-path="url(#clip0_4_5049)"><g clip-path="url(#clip7_4_5049)"><mask id="mask0_4_5049" style="mask-type:luminance" maskUnits="userSpaceOnUse" x="86" y="1889" width="81" height="80"></mask></g><g clip-path="url(#clip34_4_5049)"><mask id="mask1_4_5049" style="mask-type:luminance" maskUnits="userSpaceOnUse" x="457" y="2552" width="45" height="31"></mask></g><g clip-path="url(#clip39_4_5049)"><mask id="mask2_4_5049" style="mask-type:luminance" maskUnits="userSpaceOnUse" x="1063" y="479" width="81" height="64"></mask><g mask="url(#mask2_4_5049)"><mask id="mask3_4_5049" style="mask-type:luminance" maskUnits="userSpaceOnUse" x="1063" y="496" width="8" height="7"></mask><mask id="mask4_4_5049" style="mask-type:luminance" maskUnits="userSpaceOnUse" x="1073" y="482" width="71" height="59"></mask></g></g><mask id="mask5_4_5049" style="mask-type:luminance" maskUnits="userSpaceOnUse" x="1334" y="473" width="63" height="76"></mask><g clip-path="url(#clip41_4_5049)"><mask id="mask6_4_5049" style="mask-type:luminance" maskUnits="userSpaceOnUse" x="1333" y="741" width="81" height="80"></mask><g mask="url(#mask6_4_5049)"><mask id="mask7_4_5049" style="mask-type:luminance" maskUnits="userSpaceOnUse" x="1333" y="741" width="81" height="80"></mask><g mask="url(#mask7_4_5049)"><mask id="mask8_4_5049" style="mask-type:luminance" maskUnits="userSpaceOnUse" x="1333" y="741" width="81" height="80"></mask><g mask="url(#mask8_4_5049)"><mask id="mask9_4_5049" style="mask-type:alpha" maskUnits="userSpaceOnUse" x="1353" y="754" width="41" height="54"></mask></g></g></g></g><g clip-path="url(#clip42_4_5049)"><mask id="mask10_4_5049" style="mask-type:luminance" maskUnits="userSpaceOnUse" x="793" y="876" width="81" height="80"></mask><g mask="url(#mask10_4_5049)"><mask id="mask11_4_5049" style="mask-type:luminance" maskUnits="userSpaceOnUse" x="793" y="876" width="81" height="80"></mask><g mask="url(#mask11_4_5049)"><mask id="mask12_4_5049" style="mask-type:luminance" maskUnits="userSpaceOnUse" x="793" y="876" width="81" height="80"></mask><g mask="url(#mask12_4_5049)"><mask id="mask13_4_5049" style="mask-type:alpha" maskUnits="userSpaceOnUse" x="818" y="889" width="31" height="54"></mask></g></g></g></g><g clip-path="url(#clip43_4_5049)"><mask id="mask14_4_5049" style="mask-type:luminance" maskUnits="userSpaceOnUse" x="928" y="876" width="81" height="80"></mask><g mask="url(#mask14_4_5049)"><mask id="mask15_4_5049" style="mask-type:luminance" maskUnits="userSpaceOnUse" x="928" y="876" width="81" height="80"></mask><g mask="url(#mask15_4_5049)"><mask id="mask16_4_5049" style="mask-type:luminance" maskUnits="userSpaceOnUse" x="928" y="876" width="81" height="80"></mask><g mask="url(#mask16_4_5049)"><mask id="mask17_4_5049" style="mask-type:alpha" maskUnits="userSpaceOnUse" x="941" y="892" width="55" height="48"></mask></g></g></g></g><g clip-path="url(#clip44_4_5049)"><mask id="mask18_4_5049" style="mask-type:luminance" maskUnits="userSpaceOnUse" x="1063" y="876" width="81" height="80"></mask><g mask="url(#mask18_4_5049)"><mask id="mask19_4_5049" style="mask-type:luminance" maskUnits="userSpaceOnUse" x="1063" y="876" width="81" height="80"></mask><g mask="url(#mask19_4_5049)"><mask id="mask20_4_5049" style="mask-type:luminance" maskUnits="userSpaceOnUse" x="1063" y="876" width="81" height="80"></mask><g mask="url(#mask20_4_5049)"><mask id="mask21_4_5049" style="mask-type:alpha" maskUnits="userSpaceOnUse" x="1076" y="889" width="55" height="54"></mask></g></g></g></g><g clip-path="url(#clip45_4_5049)"><mask id="mask22_4_5049" style="mask-type:luminance" maskUnits="userSpaceOnUse" x="1198" y="876" width="81" height="80"></mask><g mask="url(#mask22_4_5049)"><mask id="mask23_4_5049" style="mask-type:luminance" maskUnits="userSpaceOnUse" x="1198" y="876" width="81" height="80"></mask><g mask="url(#mask23_4_5049)"><mask id="mask24_4_5049" style="mask-type:luminance" maskUnits="userSpaceOnUse" x="1198" y="876" width="81" height="80"></mask><g mask="url(#mask24_4_5049)"><mask id="mask25_4_5049" style="mask-type:alpha" maskUnits="userSpaceOnUse" x="1216" y="889" width="45" height="53"></mask></g></g></g></g><g clip-path="url(#clip46_4_5049)"><mask id="mask26_4_5049" style="mask-type:luminance" maskUnits="userSpaceOnUse" x="1333" y="876" width="81" height="80"></mask><g mask="url(#mask26_4_5049)"><mask id="mask27_4_5049" style="mask-type:luminance" maskUnits="userSpaceOnUse" x="1333" y="876" width="81" height="80"></mask><g mask="url(#mask27_4_5049)"><mask id="mask28_4_5049" style="mask-type:luminance" maskUnits="userSpaceOnUse" x="1333" y="876" width="81" height="80"></mask><g mask="url(#mask28_4_5049)"><mask id="mask29_4_5049" style="mask-type:alpha" maskUnits="userSpaceOnUse" x="1350" y="889" width="47" height="54"></mask><g mask="url(#mask29_4_5049)"><mask id="mask30_4_5049" style="mask-type:luminance" maskUnits="userSpaceOnUse" x="1350" y="889" width="47" height="54"><mask id="mask31_4_5049" style="mask-type:alpha" maskUnits="userSpaceOnUse" x="1350" y="889" width="47" height="54"></mask></mask></g></g></g></g></g><g clip-path="url(#clip47_4_5049)"><mask id="mask32_4_5049" style="mask-type:luminance" maskUnits="userSpaceOnUse" x="793" y="1011" width="81" height="80"></mask><g mask="url(#mask32_4_5049)"><mask id="mask33_4_5049" style="mask-type:luminance" maskUnits="userSpaceOnUse" x="793" y="1011" width="81" height="80"></mask><g mask="url(#mask33_4_5049)"><mask id="mask34_4_5049" style="mask-type:luminance" maskUnits="userSpaceOnUse" x="793" y="1011" width="81" height="80"></mask><g mask="url(#mask34_4_5049)"><mask id="mask35_4_5049" style="mask-type:alpha" maskUnits="userSpaceOnUse" x="810" y="1027" width="47" height="48"></mask></g></g></g></g><g clip-path="url(#clip48_4_5049)"><mask id="mask36_4_5049" style="mask-type:luminance" maskUnits="userSpaceOnUse" x="928" y="1011" width="81" height="80"></mask><g mask="url(#mask36_4_5049)"><mask id="mask37_4_5049" style="mask-type:luminance" maskUnits="userSpaceOnUse" x="928" y="1011" width="81" height="80"></mask><g mask="url(#mask37_4_5049)"><mask id="mask38_4_5049" style="mask-type:luminance" maskUnits="userSpaceOnUse" x="928" y="1011" width="81" height="80"></mask><g mask="url(#mask38_4_5049)"><mask id="mask39_4_5049" style="mask-type:luminance" maskUnits="userSpaceOnUse" x="935" y="1050" width="34" height="44"></mask><mask id="mask40_4_5049" style="mask-type:luminance" maskUnits="userSpaceOnUse" x="969" y="1043" width="44" height="52"></mask><mask id="mask41_4_5049" style="mask-type:alpha" maskUnits="userSpaceOnUse" x="948" y="1027" width="41" height="51"></mask></g></g></g></g><g clip-path="url(#clip49_4_5049)"><mask id="mask42_4_5049" style="mask-type:luminance" maskUnits="userSpaceOnUse" x="1063" y="1011" width="81" height="80"></mask><g mask="url(#mask42_4_5049)"><mask id="mask43_4_5049" style="mask-type:luminance" maskUnits="userSpaceOnUse" x="1063" y="1011" width="81" height="80"></mask><g mask="url(#mask43_4_5049)"><mask id="mask44_4_5049" style="mask-type:luminance" maskUnits="userSpaceOnUse" x="1063" y="1011" width="81" height="80"></mask><g mask="url(#mask44_4_5049)"><mask id="mask45_4_5049" style="mask-type:luminance" maskUnits="userSpaceOnUse" x="1061" y="1041" width="26" height="25"></mask><mask id="mask46_4_5049" style="mask-type:luminance" maskUnits="userSpaceOnUse" x="1126" y="1043" width="23" height="18"></mask><mask id="mask47_4_5049" style="mask-type:luminance" maskUnits="userSpaceOnUse" x="1104" y="1016" width="29" height="30"></mask><mask id="mask48_4_5049" style="mask-type:alpha" maskUnits="userSpaceOnUse" x="1076" y="1029" width="55" height="46"></mask></g></g></g></g><g clip-path="url(#clip50_4_5049)"><mask id="mask49_4_5049" style="mask-type:luminance" maskUnits="userSpaceOnUse" x="1333" y="1291" width="81" height="60"></mask></g><g clip-path="url(#clip51_4_5049)"><mask id="mask50_4_5049" style="mask-type:luminance" maskUnits="userSpaceOnUse" x="794" y="1427" width="80" height="60"></mask></g><g clip-path="url(#clip52_4_5049)"><mask id="mask51_4_5049" style="mask-type:luminance" maskUnits="userSpaceOnUse" x="928" y="1426" width="81" height="60"></mask></g><mask id="mask52_4_5049" style="mask-type:luminance" maskUnits="userSpaceOnUse" x="1063" y="1426" width="81" height="60"></mask><g clip-path="url(#clip53_4_5049)"><mask id="mask53_4_5049" style="mask-type:luminance" maskUnits="userSpaceOnUse" x="1198" y="1426" width="81" height="60"></mask></g><g clip-path="url(#clip54_4_5049)"><mask id="mask54_4_5049" style="mask-type:luminance" maskUnits="userSpaceOnUse" x="1333" y="1426" width="81" height="60"></mask></g><g clip-path="url(#clip55_4_5049)"><mask id="mask55_4_5049" style="mask-type:luminance" maskUnits="userSpaceOnUse" x="996" y="1561" width="80" height="60"></mask></g><g clip-path="url(#clip56_4_5049)"><mask id="mask56_4_5049" style="mask-type:luminance" maskUnits="userSpaceOnUse" x="1131" y="1561" width="80" height="60"></mask></g></g><g clip-path="url(#clip59_4_5049)"><g clip-path="url(#clip62_4_5049)"><mask id="mask57_4_5049" style="mask-type:luminance" maskUnits="userSpaceOnUse" x="561" y="3391" width="80" height="81"></mask></g><g clip-path="url(#clip63_4_5049)"><mask id="mask58_4_5049" style="mask-type:luminance" maskUnits="userSpaceOnUse" x="358" y="3594" width="81" height="81"></mask><g mask="url(#mask58_4_5049)"><mask id="mask59_4_5049" style="mask-type:luminance" maskUnits="userSpaceOnUse" x="358" y="3594" width="81" height="81"></mask><g mask="url(#mask59_4_5049)"><mask id="mask60_4_5049" style="mask-type:luminance" maskUnits="userSpaceOnUse" x="358" y="3594" width="81" height="81"></mask><g mask="url(#mask60_4_5049)"><mask id="mask61_4_5049" style="mask-type:luminance" maskUnits="userSpaceOnUse" x="356" y="3590" width="87" height="88"></mask></g><mask id="mask62_4_5049" style="mask-type:luminance" maskUnits="userSpaceOnUse" x="331" y="3567" width="135" height="135"></mask></g></g></g><mask id="mask63_4_5049" style="mask-type:luminance" maskUnits="userSpaceOnUse" x="493" y="3594" width="81" height="81"></mask><g mask="url(#mask63_4_5049)"><mask id="mask64_4_5049" style="mask-type:luminance" maskUnits="userSpaceOnUse" x="493" y="3594" width="81" height="81"></mask></g><mask id="mask65_4_5049" style="mask-type:luminance" maskUnits="userSpaceOnUse" x="628" y="3594" width="81" height="81"></mask><g mask="url(#mask65_4_5049)"><mask id="mask66_4_5049" style="mask-type:luminance" maskUnits="userSpaceOnUse" x="628" y="3594" width="81" height="81"></mask><g mask="url(#mask66_4_5049)"><mask id="mask67_4_5049" style="mask-type:luminance" maskUnits="userSpaceOnUse" x="601" y="3567" width="135" height="135"></mask><g mask="url(#mask67_4_5049)"><mask id="mask68_4_5049" style="mask-type:luminance" maskUnits="userSpaceOnUse" x="628" y="3550" width="131" height="125"></mask></g></g></g><mask id="mask69_4_5049" style="mask-type:luminance" maskUnits="userSpaceOnUse" x="88" y="3729" width="81" height="81"></mask><g mask="url(#mask69_4_5049)"><mask id="mask70_4_5049" style="mask-type:luminance" maskUnits="userSpaceOnUse" x="88" y="3729" width="81" height="81"></mask><g mask="url(#mask70_4_5049)"><mask id="mask71_4_5049" style="mask-type:luminance" maskUnits="userSpaceOnUse" x="61" y="3702" width="135" height="135"></mask><g mask="url(#mask71_4_5049)"><mask id="mask72_4_5049" style="mask-type:luminance" maskUnits="userSpaceOnUse" x="86" y="3725" width="87" height="88"></mask></g><mask id="mask73_4_5049" style="mask-type:luminance" maskUnits="userSpaceOnUse" x="61" y="3702" width="135" height="135"></mask></g></g><mask id="mask74_4_5049" style="mask-type:luminance" maskUnits="userSpaceOnUse" x="223" y="3729" width="81" height="81"></mask><g mask="url(#mask74_4_5049)"><mask id="mask75_4_5049" style="mask-type:luminance" maskUnits="userSpaceOnUse" x="223" y="3729" width="81" height="81"></mask><g mask="url(#mask75_4_5049)"><mask id="mask76_4_5049" style="mask-type:luminance" maskUnits="userSpaceOnUse" x="194" y="3700" width="139" height="139"></mask><g mask="url(#mask76_4_5049)"><mask id="mask77_4_5049" style="mask-type:luminance" maskUnits="userSpaceOnUse" x="176" y="3729" width="128" height="127"></mask><g mask="url(#mask77_4_5049)"><mask id="mask78_4_5049" style="mask-type:luminance" maskUnits="userSpaceOnUse" x="194" y="3700" width="139" height="139"></mask></g></g></g></g><mask id="mask79_4_5049" style="mask-type:luminance" maskUnits="userSpaceOnUse" x="358" y="3729" width="81" height="81"></mask><g mask="url(#mask79_4_5049)"><mask id="mask80_4_5049" style="mask-type:luminance" maskUnits="userSpaceOnUse" x="358" y="3729" width="81" height="81"></mask><g mask="url(#mask80_4_5049)"><mask id="mask81_4_5049" style="mask-type:luminance" maskUnits="userSpaceOnUse" x="329" y="3700" width="139" height="139"></mask><g mask="url(#mask81_4_5049)"><mask id="mask82_4_5049" style="mask-type:luminance" maskUnits="userSpaceOnUse" x="354" y="3723" width="91" height="92"></mask><g mask="url(#mask82_4_5049)"><mask id="mask83_4_5049" style="mask-type:luminance" maskUnits="userSpaceOnUse" x="329" y="3700" width="139" height="139"></mask></g></g></g></g><g clip-path="url(#clip64_4_5049)"><mask id="mask84_4_5049" style="mask-type:luminance" maskUnits="userSpaceOnUse" x="628" y="3729" width="81" height="81"></mask><g mask="url(#mask84_4_5049)"><mask id="mask85_4_5049" style="mask-type:luminance" maskUnits="userSpaceOnUse" x="562" y="3661" width="217" height="217"></mask></g></g><mask id="mask86_4_5049" style="mask-type:luminance" maskUnits="userSpaceOnUse" x="1196" y="3864" width="81" height="81"></mask><g mask="url(#mask86_4_5049)"><mask id="mask87_4_5049" style="mask-type:luminance" maskUnits="userSpaceOnUse" x="1196" y="3864" width="81" height="81"></mask></g><g clip-path="url(#clip66_4_5049)"><mask id="mask88_4_5049" style="mask-type:luminance" maskUnits="userSpaceOnUse" x="1061" y="3999" width="81" height="81"></mask><g mask="url(#mask88_4_5049)"><mask id="mask89_4_5049" style="mask-type:luminance" maskUnits="userSpaceOnUse" x="995" y="3931" width="217" height="217"></mask></g></g><g clip-path="url(#clip67_4_5049)"><mask id="mask90_4_5049" style="mask-type:luminance" maskUnits="userSpaceOnUse" x="1062" y="4269" width="81" height="81"></mask></g><path d="M1378.97 3395.1C1379.82 3395.31 1380.56 3395.86 1381.02 3396.61C1381.47 3397.37 1381.61 3398.28 1381.4 3399.13L1378.07 3412.47C1377.98 3412.91 1377.8 3413.32 1377.54 3413.69C1377.29 3414.06 1376.96 3414.37 1376.58 3414.61C1376.2 3414.85 1375.78 3415.01 1375.33 3415.08C1374.89 3415.15 1374.44 3415.14 1374 3415.03C1373.57 3414.92 1373.16 3414.73 1372.8 3414.46C1372.44 3414.19 1372.14 3413.85 1371.92 3413.46C1371.69 3413.07 1371.55 3412.64 1371.49 3412.19C1371.44 3411.75 1371.48 3411.3 1371.6 3410.87L1374.93 3397.53C1375.15 3396.68 1375.69 3395.94 1376.45 3395.48C1377.2 3395.03 1378.11 3394.89 1378.97 3395.1ZM1400.5 3407.33C1400.98 3406.69 1401.22 3405.9 1401.16 3405.1C1401.1 3404.3 1400.76 3403.54 1400.19 3402.98C1399.62 3402.41 1398.87 3402.07 1398.07 3402.01C1397.27 3401.95 1396.48 3402.19 1395.83 3402.67L1382.5 3416C1382.02 3416.64 1381.78 3417.44 1381.84 3418.24C1381.9 3419.04 1382.24 3419.79 1382.81 3420.36C1383.38 3420.92 1384.13 3421.27 1384.93 3421.32C1385.73 3421.38 1386.52 3421.15 1387.17 3420.67L1400.5 3407.33Z" fill="#C5C6CA"/><path fill-rule="evenodd" clip-rule="evenodd" d="M1381.97 3458.8C1387.9 3452.87 1384.3 3439.63 1373.9 3429.27C1363.53 3418.87 1350.3 3415.27 1344.37 3421.2C1342.54 3423.13 1341.51 3425.68 1341.5 3428.33L1337.63 3458.07C1337.5 3459.08 1337.61 3460.11 1337.93 3461.07C1338.26 3462.04 1338.81 3462.91 1339.53 3463.64C1340.25 3464.36 1341.13 3464.9 1342.09 3465.23C1343.06 3465.56 1344.09 3465.66 1345.1 3465.53L1374.83 3461.67C1377.7 3461.53 1380.17 3460.6 1381.97 3458.8ZM1377.63 3447.47C1376 3442.33 1373.1 3437.69 1369.2 3433.97C1365.48 3430.06 1360.84 3427.16 1355.7 3425.53C1351.47 3424.37 1349.63 3425.37 1349.07 3425.9C1348.53 3426.47 1347.53 3428.3 1348.7 3432.57C1350.34 3437.69 1353.24 3442.32 1357.13 3446.03C1360.85 3449.94 1365.5 3452.84 1370.63 3454.47C1374.87 3455.63 1376.7 3454.63 1377.27 3454.1C1377.8 3453.53 1378.8 3451.7 1377.63 3447.43V3447.47Z" fill="#C5C6CA"/><path d="M1355 3402.73C1354.72 3401.89 1354.78 3400.98 1355.17 3400.18C1355.57 3399.39 1356.26 3398.78 1357.1 3398.5C1357.94 3398.22 1358.86 3398.28 1359.65 3398.67C1360.45 3399.07 1361.05 3399.76 1361.33 3400.6L1364.67 3410.6C1364.95 3411.44 1364.89 3412.36 1364.49 3413.15C1364.1 3413.95 1363.41 3414.55 1362.57 3414.83C1361.73 3415.12 1360.81 3415.05 1360.02 3414.66C1359.22 3414.27 1358.62 3413.57 1358.33 3412.73L1355 3402.73ZM1408.07 3424.2C1407.85 3423.34 1407.31 3422.61 1406.55 3422.15C1405.8 3421.69 1404.89 3421.56 1404.03 3421.77L1390.7 3425.1C1390.26 3425.19 1389.84 3425.37 1389.48 3425.62C1389.11 3425.88 1388.79 3426.21 1388.55 3426.59C1388.32 3426.97 1388.16 3427.39 1388.08 3427.83C1388.01 3428.28 1388.03 3428.73 1388.14 3429.16C1388.25 3429.6 1388.44 3430.01 1388.71 3430.37C1388.98 3430.73 1389.32 3431.03 1389.71 3431.25C1390.1 3431.48 1390.53 3431.62 1390.97 3431.67C1391.42 3431.73 1391.87 3431.69 1392.3 3431.57L1405.63 3428.23C1406.49 3428.02 1407.23 3427.48 1407.68 3426.72C1408.14 3425.96 1408.28 3425.06 1408.07 3424.2ZM1400.43 3448.17C1401.27 3448.45 1402.19 3448.39 1402.98 3447.99C1403.78 3447.6 1404.38 3446.91 1404.67 3446.07C1404.95 3445.23 1404.89 3444.31 1404.49 3443.51C1404.1 3442.72 1403.41 3442.12 1402.57 3441.83L1392.57 3438.5C1392.15 3438.36 1391.71 3438.3 1391.27 3438.33C1390.84 3438.36 1390.41 3438.48 1390.02 3438.67C1389.62 3438.87 1389.27 3439.14 1388.98 3439.47C1388.69 3439.8 1388.47 3440.18 1388.33 3440.6C1388.19 3441.02 1388.14 3441.46 1388.17 3441.89C1388.2 3442.33 1388.31 3442.76 1388.51 3443.15C1388.7 3443.54 1388.97 3443.9 1389.3 3444.18C1389.63 3444.47 1390.02 3444.69 1390.43 3444.83L1400.43 3448.17Z" fill="#C5C6CA"/><g clip-path="url(#clip68_4_5049)"><mask id="mask91_4_5049" style="mask-type:luminance" maskUnits="userSpaceOnUse" x="859" y="3526" width="80" height="81"></mask><g mask="url(#mask91_4_5049)"><mask id="mask92_4_5049" style="mask-type:luminance" maskUnits="userSpaceOnUse" x="792" y="3458" width="217" height="217"></mask></g></g></g><defs><clipPath id="clip0_4_5049"><rect width="1394" height="2903" fill="white" transform="translate(53 124)"/></clipPath><clipPath id="clip1_4_5049"><rect width="80" height="80" fill="white" transform="translate(88.5 471)"/></clipPath><clipPath id="clip2_4_5049"><rect width="80" height="80" fill="white" transform="translate(358.5 471)"/></clipPath><clipPath id="clip3_4_5049"><rect width="52.3259" height="52.3257" fill="white" transform="translate(263.5 744) rotate(45)"/></clipPath><clipPath id="clip4_4_5049"><rect width="80" height="80" fill="white" transform="translate(356.5 1349)"/></clipPath><clipPath id="clip5_4_5049"><rect width="80" height="80" fill="white" transform="translate(626.5 1619)"/></clipPath><clipPath id="clip6_4_5049"><rect width="80" height="80" fill="white" transform="translate(491.5 1754)"/></clipPath><clipPath id="clip7_4_5049"><rect width="80" height="80" fill="white" transform="translate(86.5 1889)"/></clipPath><clipPath id="clip8_4_5049"><rect width="80" height="80" fill="white" transform="translate(221.5 1889)"/></clipPath><clipPath id="clip9_4_5049"><rect width="80" height="80" fill="white" transform="translate(491.5 1889)"/></clipPath><clipPath id="clip10_4_5049"><rect width="80" height="80" fill="white" transform="translate(626.5 1889)"/></clipPath><clipPath id="clip11_4_5049"><rect width="80" height="80" fill="white" transform="translate(221.5 2024)"/></clipPath><clipPath id="clip12_4_5049"><rect width="81" height="80" fill="white" transform="translate(356 2024)"/></clipPath><clipPath id="clip13_4_5049"><rect width="80" height="80" fill="white" transform="translate(491.5 2024)"/></clipPath><clipPath id="clip14_4_5049"><rect width="80" height="80" fill="white" transform="translate(626.5 2024)"/></clipPath><clipPath id="clip15_4_5049"><rect width="80" height="80" fill="white" transform="translate(86.5 2159)"/></clipPath><clipPath id="clip16_4_5049"><rect width="80" height="80" fill="white" transform="translate(221.5 2159)"/></clipPath><clipPath id="clip17_4_5049"><rect width="81" height="80" fill="white" transform="translate(356 2159)"/></clipPath><clipPath id="clip18_4_5049"><rect width="80" height="80" fill="white" transform="translate(491.5 2159)"/></clipPath><clipPath id="clip19_4_5049"><rect width="80" height="80" fill="white" transform="translate(626.5 2159)"/></clipPath><clipPath id="clip20_4_5049"><rect width="80" height="80" fill="white" transform="translate(86.5 2294)"/></clipPath><clipPath id="clip21_4_5049"><rect width="80" height="80" fill="white" transform="translate(221.5 2294)"/></clipPath><clipPath id="clip22_4_5049"><rect width="81" height="80" fill="white" transform="translate(356 2294)"/></clipPath><clipPath id="clip23_4_5049"><rect width="80" height="80" fill="white" transform="translate(491.5 2294)"/></clipPath><clipPath id="clip24_4_5049"><rect width="80" height="80" fill="white" transform="translate(626.5 2294)"/></clipPath><clipPath id="clip25_4_5049"><rect width="126" height="30" fill="white" transform="translate(83.5 2487)"/></clipPath><clipPath id="clip26_4_5049"><rect width="114" height="30" fill="white" transform="translate(244.5 2487)"/></clipPath><clipPath id="clip27_4_5049"><rect width="90" height="30" fill="white" transform="translate(393.5 2487)"/></clipPath><clipPath id="clip28_4_5049"><rect width="78" height="30" fill="white" transform="translate(518.5 2487)"/></clipPath><clipPath id="clip29_4_5049"><rect width="78" height="30" fill="white" transform="translate(631.5 2487)"/></clipPath><clipPath id="clip30_4_5049"><rect width="54" height="30" fill="white" transform="translate(89.5 2552)"/></clipPath><clipPath id="clip31_4_5049"><rect width="54" height="30" fill="white" transform="translate(178.5 2552)"/></clipPath><clipPath id="clip32_4_5049"><rect width="60" height="30" fill="white" transform="translate(267.5 2552)"/></clipPath><clipPath id="clip33_4_5049"><rect width="60" height="30" fill="white" transform="translate(362.5 2552)"/></clipPath><clipPath id="clip34_4_5049"><rect width="44" height="30" fill="white" transform="translate(457.5 2552)"/></clipPath><clipPath id="clip35_4_5049"><rect width="54" height="30" fill="white" transform="translate(536.5 2552)"/></clipPath><clipPath id="clip36_4_5049"><rect width="78" height="24" fill="white" transform="translate(625.5 2555)"/></clipPath><clipPath id="clip37_4_5049"><rect width="80" height="80" fill="white" transform="translate(1063.5 201)"/></clipPath><clipPath id="clip38_4_5049"><rect width="81" height="57" fill="white" transform="translate(928 482.5)"/></clipPath><clipPath id="clip39_4_5049"><rect width="80" height="63" fill="white" transform="translate(1063.5 479.5)"/></clipPath><clipPath id="clip40_4_5049"><rect width="80" height="80" fill="white" transform="translate(1198.5 471)"/></clipPath><clipPath id="clip41_4_5049"><rect width="80" height="80" fill="white" transform="translate(1333.5 741)"/></clipPath><clipPath id="clip42_4_5049"><rect width="80" height="80" fill="white" transform="translate(793.5 876)"/></clipPath><clipPath id="clip43_4_5049"><rect width="80" height="80" fill="white" transform="translate(928.5 876)"/></clipPath><clipPath id="clip44_4_5049"><rect width="80" height="80" fill="white" transform="translate(1063.5 876)"/></clipPath><clipPath id="clip45_4_5049"><rect width="80" height="80" fill="white" transform="translate(1198.5 876)"/></clipPath><clipPath id="clip46_4_5049"><rect width="80" height="80" fill="white" transform="translate(1333.5 876)"/></clipPath><clipPath id="clip47_4_5049"><rect width="80" height="80" fill="white" transform="translate(793.5 1011)"/></clipPath><clipPath id="clip48_4_5049"><rect width="80" height="80" fill="white" transform="translate(928.5 1011)"/></clipPath><clipPath id="clip49_4_5049"><rect width="80" height="80" fill="white" transform="translate(1063.5 1011)"/></clipPath><clipPath id="clip50_4_5049"><rect width="80" height="58.34" fill="white" transform="translate(1333.5 1291.83)"/></clipPath><clipPath id="clip51_4_5049"><rect width="80" height="58.34" fill="white" transform="translate(793.5 1426.83)"/></clipPath><clipPath id="clip52_4_5049"><rect width="80" height="58.34" fill="white" transform="translate(928.5 1426.83)"/></clipPath><clipPath id="clip53_4_5049"><rect width="80" height="58.34" fill="white" transform="translate(1198.5 1426.83)"/></clipPath><clipPath id="clip54_4_5049"><rect width="80" height="58.34" fill="white" transform="translate(1333.5 1426.83)"/></clipPath><clipPath id="clip55_4_5049"><rect width="80" height="58.34" fill="white" transform="translate(996 1561.83)"/></clipPath><clipPath id="clip56_4_5049"><rect width="80" height="58.34" fill="white" transform="translate(1131 1561.83)"/></clipPath><clipPath id="clip57_4_5049"><rect width="80" height="80" fill="white" transform="translate(1333.5 1883)"/></clipPath><clipPath id="clip58_4_5049"><rect width="80" height="80" fill="white" transform="translate(1333.5 2288)"/></clipPath><clipPath id="clip59_4_5049"><rect width="1390" height="1497" fill="white" transform="translate(55 3179.5)"/></clipPath><clipPath id="clip60_4_5049"><rect width="80" height="80" fill="white" transform="translate(358.5 3256.5)"/></clipPath><clipPath id="clip61_4_5049"><rect width="80" height="80" fill="white" transform="translate(493.5 3256.5)"/></clipPath><clipPath id="clip62_4_5049"><rect width="81" height="80" fill="white" transform="translate(560.5 3391.5)"/></clipPath><clipPath id="clip63_4_5049"><rect width="80" height="80" fill="white" transform="translate(358.5 3594.5)"/></clipPath><clipPath id="clip64_4_5049"><rect width="80" height="80" fill="white" transform="translate(628.5 3729.5)"/></clipPath><clipPath id="clip65_4_5049"><rect width="80" height="80" fill="white" transform="translate(1061.5 3864)"/></clipPath><clipPath id="clip66_4_5049"><rect width="80" height="80" fill="white" transform="translate(1061.5 3999)"/></clipPath><clipPath id="clip67_4_5049"><rect width="81" height="80" fill="white" transform="translate(1061.5 4269)"/></clipPath><clipPath id="clip68_4_5049"><rect width="80" height="80" fill="white" transform="translate(859 3526.5)"/></clipPath><clipPath id="clip69_4_5049"><rect width="80" height="80" fill="white" transform="translate(1129 3526.5)"/></clipPath></defs></svg>