<svg width="100" height="100" viewBox="197.5 1341 100 100" fill="none" xmlns="http://www.w3.org/2000/svg"><g clip-path="url(#clip0_19_2392)"><g clip-path="url(#clip11_19_2392)"><g clip-path="url(#clip12_19_2392)"><path d="M218.5 1378.83C219.123 1378.22 219.961 1377.88 220.833 1377.88C221.706 1377.88 222.544 1378.22 223.167 1378.83L247.5 1403.13L271.833 1378.8C272.135 1378.45 272.504 1378.17 272.919 1377.98C273.334 1377.78 273.785 1377.67 274.245 1377.66C274.704 1377.64 275.161 1377.72 275.587 1377.89C276.014 1378.06 276.4 1378.32 276.723 1378.65C277.045 1378.97 277.297 1379.36 277.461 1379.79C277.626 1380.22 277.7 1380.68 277.679 1381.14C277.658 1381.6 277.542 1382.05 277.34 1382.46C277.137 1382.87 276.851 1383.24 276.5 1383.53L249.833 1410.2C249.21 1410.81 248.373 1411.15 247.5 1411.15C246.628 1411.15 245.79 1410.81 245.167 1410.2L218.5 1383.53C218.188 1383.22 217.94 1382.85 217.77 1382.45C217.601 1382.04 217.514 1381.61 217.514 1381.17C217.514 1380.73 217.601 1380.29 217.77 1379.88C217.94 1379.48 218.188 1379.11 218.5 1378.8V1378.83Z" fill="#C5C6CA"/></g></g></g><defs><clipPath id="clip0_19_2392"><rect width="830" height="2144" fill="white" transform="translate(35 124)"/></clipPath><clipPath id="clip1_19_2392"><rect width="80" height="80" fill="white" transform="translate(140 154)"/></clipPath><clipPath id="clip2_19_2392"><rect width="80" height="80" fill="white" transform="translate(275 154)"/></clipPath><clipPath id="clip3_19_2392"><rect width="80" height="40" fill="white" transform="translate(409.5 174.315)"/></clipPath><clipPath id="clip4_19_2392"><rect width="80" height="40" fill="white" transform="translate(544.5 174.315)"/></clipPath><clipPath id="clip5_19_2392"><rect x="265" y="279" width="100" height="100" rx="30" fill="white"/></clipPath><clipPath id="clip6_19_2392"><rect x="400" y="279" width="100" height="100" rx="30" fill="white"/></clipPath><clipPath id="clip7_19_2392"><rect width="810" height="322" fill="white" transform="translate(45 727)"/></clipPath><clipPath id="clip8_19_2392"><rect width="391" height="312" fill="white" transform="translate(45 727)"/></clipPath><clipPath id="clip9_19_2392"><rect width="74" height="74" fill="white" transform="translate(747.5 807)"/></clipPath><clipPath id="clip10_19_2392"><rect width="75" height="74" fill="white" transform="translate(480 942)"/></clipPath><clipPath id="clip11_19_2392"><rect width="796" height="312" fill="white" transform="translate(52 1139)"/></clipPath><clipPath id="clip12_19_2392"><rect width="391" height="312" fill="white" transform="translate(52 1139)"/></clipPath><clipPath id="clip13_19_2392"><rect width="391" height="177" fill="white" transform="translate(457 1139)"/></clipPath><clipPath id="clip14_19_2392"><rect width="794" height="717" fill="white" transform="translate(53 1541)"/></clipPath><clipPath id="clip15_19_2392"><rect width="794" height="717" fill="white" transform="translate(53 1541)"/></clipPath><clipPath id="clip16_19_2392"><rect width="80" height="80" fill="white" transform="translate(680 1753)"/></clipPath><clipPath id="clip17_19_2392"><rect width="80" height="80" fill="white" transform="translate(275 1888)"/></clipPath><clipPath id="clip18_19_2392"><rect width="687" height="1844" fill="white" transform="translate(881 124)"/></clipPath><clipPath id="clip19_19_2392"><rect width="80" height="80" fill="white" transform="translate(1049.5 1648)"/></clipPath></defs></svg>