<svg width="100" height="100" viewBox="400 549 100 100" fill="none" xmlns="http://www.w3.org/2000/svg"><g clip-path="url(#clip0_19_2392)"><path d="M431.667 625.667C426.6 625.667 422.278 623.922 418.7 620.433C415.122 616.922 413.333 612.644 413.333 607.6C413.333 603.267 414.633 599.4 417.233 596C419.856 592.6 423.278 590.433 427.5 589.5C428.789 585.011 431.167 581.233 434.633 578.167C438.1 575.122 442.111 573.267 446.667 572.6V599.5L441.333 594.333L436.667 599L450 612.333L463.333 599L458.667 594.333L453.333 599.5V572.6C459.067 573.378 463.833 575.944 467.633 580.3C471.433 584.656 473.333 589.778 473.333 595.667C477.178 596.111 480.356 597.778 482.867 600.667C485.4 603.511 486.667 606.844 486.667 610.667C486.667 614.844 485.211 618.389 482.3 621.3C479.389 624.211 475.844 625.667 471.667 625.667H431.667Z" fill="#C5C6CA"/></g><defs><clipPath id="clip0_19_2392"><rect width="830" height="2144" fill="white" transform="translate(35 124)"/></clipPath><clipPath id="clip1_19_2392"><rect width="80" height="80" fill="white" transform="translate(140 154)"/></clipPath><clipPath id="clip2_19_2392"><rect width="80" height="80" fill="white" transform="translate(275 154)"/></clipPath><clipPath id="clip3_19_2392"><rect width="80" height="40" fill="white" transform="translate(409.5 174.315)"/></clipPath><clipPath id="clip4_19_2392"><rect width="80" height="40" fill="white" transform="translate(544.5 174.315)"/></clipPath><clipPath id="clip5_19_2392"><rect x="265" y="279" width="100" height="100" rx="30" fill="white"/></clipPath><clipPath id="clip6_19_2392"><rect x="400" y="279" width="100" height="100" rx="30" fill="white"/></clipPath><clipPath id="clip7_19_2392"><rect width="810" height="322" fill="white" transform="translate(45 727)"/></clipPath><clipPath id="clip8_19_2392"><rect width="391" height="312" fill="white" transform="translate(45 727)"/></clipPath><clipPath id="clip9_19_2392"><rect width="74" height="74" fill="white" transform="translate(747.5 807)"/></clipPath><clipPath id="clip10_19_2392"><rect width="75" height="74" fill="white" transform="translate(480 942)"/></clipPath><clipPath id="clip11_19_2392"><rect width="796" height="312" fill="white" transform="translate(52 1139)"/></clipPath><clipPath id="clip12_19_2392"><rect width="391" height="312" fill="white" transform="translate(52 1139)"/></clipPath><clipPath id="clip13_19_2392"><rect width="391" height="177" fill="white" transform="translate(457 1139)"/></clipPath><clipPath id="clip14_19_2392"><rect width="794" height="717" fill="white" transform="translate(53 1541)"/></clipPath><clipPath id="clip15_19_2392"><rect width="794" height="717" fill="white" transform="translate(53 1541)"/></clipPath><clipPath id="clip16_19_2392"><rect width="80" height="80" fill="white" transform="translate(680 1753)"/></clipPath><clipPath id="clip17_19_2392"><rect width="80" height="80" fill="white" transform="translate(275 1888)"/></clipPath><clipPath id="clip18_19_2392"><rect width="687" height="1844" fill="white" transform="translate(881 124)"/></clipPath><clipPath id="clip19_19_2392"><rect width="80" height="80" fill="white" transform="translate(1049.5 1648)"/></clipPath></defs></svg>