<svg width="100" height="100" viewBox="428.5 472 100 100" fill="none" xmlns="http://www.w3.org/2000/svg"><path fill-rule="evenodd" clip-rule="evenodd" d="M453.833 497.233C454.211 494.901 455.403 492.778 457.197 491.24C458.991 489.703 461.271 488.85 463.633 488.833H504.833C505.798 488.835 506.75 489.047 507.625 489.453C508.5 489.859 509.277 490.45 509.901 491.185C510.525 491.92 510.983 492.782 511.241 493.711C511.5 494.64 511.554 495.614 511.4 496.567L503.2 547.1C502.82 549.443 501.619 551.575 499.811 553.114C498.004 554.653 495.707 555.499 493.333 555.5H452.167C451.202 555.498 450.25 555.287 449.375 554.881C448.5 554.475 447.723 553.884 447.099 553.148C446.475 552.413 446.017 551.551 445.759 550.622C445.5 549.693 445.446 548.719 445.6 547.767L453.8 497.233H453.833ZM468.5 498.833C468.5 497.949 468.851 497.101 469.476 496.476C470.101 495.851 470.949 495.5 471.833 495.5H491.833C492.717 495.5 493.565 495.851 494.19 496.476C494.816 497.101 495.167 497.949 495.167 498.833C495.167 499.717 494.816 500.565 494.19 501.19C493.565 501.815 492.717 502.167 491.833 502.167H471.833C470.949 502.167 470.101 501.815 469.476 501.19C468.851 500.565 468.5 499.717 468.5 498.833ZM481.533 517.6C481.304 516.98 480.891 516.445 480.349 516.067C479.806 515.689 479.161 515.486 478.5 515.486C477.839 515.486 477.194 515.689 476.651 516.067C476.109 516.445 475.696 516.98 475.467 517.6L474.3 520.7C473.97 521.606 473.448 522.43 472.769 523.115C472.09 523.8 471.27 524.329 470.367 524.667L467.267 525.8C466.647 526.029 466.111 526.442 465.733 526.985C465.356 527.527 465.153 528.172 465.153 528.833C465.153 529.494 465.356 530.139 465.733 530.682C466.111 531.224 466.647 531.638 467.267 531.867L470.367 533C471.27 533.337 472.09 533.867 472.769 534.551C473.448 535.236 473.97 536.06 474.3 536.967L475.467 540.067C475.696 540.687 476.109 541.222 476.651 541.6C477.194 541.978 477.839 542.18 478.5 542.18C479.161 542.18 479.806 541.978 480.349 541.6C480.891 541.222 481.304 540.687 481.533 540.067L482.667 536.967C483 536.057 483.527 535.231 484.213 534.546C484.898 533.861 485.724 533.333 486.633 533L489.733 531.867C490.354 531.638 490.889 531.224 491.267 530.682C491.645 530.139 491.847 529.494 491.847 528.833C491.847 528.172 491.645 527.527 491.267 526.985C490.889 526.442 490.354 526.029 489.733 525.8L486.633 524.667C485.724 524.333 484.898 523.806 484.213 523.121C483.527 522.436 483 521.61 482.667 520.7L481.533 517.6Z" fill="#C5C6CA"/><defs><clipPath id="clip0_8_4588"><rect width="80" height="80" fill="white" transform="translate(303.5 482)"/></clipPath><clipPath id="clip1_8_4588"><rect width="80" height="80" fill="white" transform="translate(168.5 617)"/></clipPath></defs></svg>