<svg width="100" height="100" viewBox="265 2013 100 100" fill="none" xmlns="http://www.w3.org/2000/svg"><g clip-path="url(#clip0_19_2392)"><g clip-path="url(#clip14_19_2392)"><g clip-path="url(#clip15_19_2392)"><path fill-rule="evenodd" clip-rule="evenodd" d="M281.9 2059.63C281.205 2059.11 280.69 2058.39 280.427 2057.56C280.165 2056.73 280.168 2055.84 280.436 2055.01C280.704 2054.19 281.224 2053.47 281.923 2052.95C282.622 2052.43 283.465 2052.15 284.333 2052.13H304.733L311.067 2032.7C312.3 2028.87 317.733 2028.87 318.967 2032.7L325.267 2052.13H345.667C349.667 2052.13 351.367 2057.27 348.1 2059.63L331.6 2071.63L337.933 2091.03C338.214 2091.87 338.219 2092.78 337.948 2093.63C337.678 2094.47 337.145 2095.2 336.428 2095.73C335.71 2096.25 334.846 2096.52 333.96 2096.52C333.074 2096.51 332.212 2096.23 331.5 2095.7L315 2083.7L298.5 2095.7C295.233 2098.03 290.833 2094.87 292.1 2091.03L298.4 2071.63L281.9 2059.63ZM320.4 2058.8H337.933L323.767 2069.1L329.167 2085.77L315 2075.43L300.833 2085.77L306.233 2069.1L292.067 2058.77H309.6L315 2042.1L320.4 2058.77V2058.8Z" fill="#EDAD33"/></g></g></g><defs><clipPath id="clip0_19_2392"><rect width="830" height="2144" fill="white" transform="translate(35 124)"/></clipPath><clipPath id="clip1_19_2392"><rect width="80" height="80" fill="white" transform="translate(140 154)"/></clipPath><clipPath id="clip2_19_2392"><rect width="80" height="80" fill="white" transform="translate(275 154)"/></clipPath><clipPath id="clip3_19_2392"><rect width="80" height="40" fill="white" transform="translate(409.5 174.315)"/></clipPath><clipPath id="clip4_19_2392"><rect width="80" height="40" fill="white" transform="translate(544.5 174.315)"/></clipPath><clipPath id="clip5_19_2392"><rect x="265" y="279" width="100" height="100" rx="30" fill="white"/></clipPath><clipPath id="clip6_19_2392"><rect x="400" y="279" width="100" height="100" rx="30" fill="white"/></clipPath><clipPath id="clip7_19_2392"><rect width="810" height="322" fill="white" transform="translate(45 727)"/></clipPath><clipPath id="clip8_19_2392"><rect width="391" height="312" fill="white" transform="translate(45 727)"/></clipPath><clipPath id="clip9_19_2392"><rect width="74" height="74" fill="white" transform="translate(747.5 807)"/></clipPath><clipPath id="clip10_19_2392"><rect width="75" height="74" fill="white" transform="translate(480 942)"/></clipPath><clipPath id="clip11_19_2392"><rect width="796" height="312" fill="white" transform="translate(52 1139)"/></clipPath><clipPath id="clip12_19_2392"><rect width="391" height="312" fill="white" transform="translate(52 1139)"/></clipPath><clipPath id="clip13_19_2392"><rect width="391" height="177" fill="white" transform="translate(457 1139)"/></clipPath><clipPath id="clip14_19_2392"><rect width="794" height="717" fill="white" transform="translate(53 1541)"/></clipPath><clipPath id="clip15_19_2392"><rect width="794" height="717" fill="white" transform="translate(53 1541)"/></clipPath><clipPath id="clip16_19_2392"><rect width="80" height="80" fill="white" transform="translate(680 1753)"/></clipPath><clipPath id="clip17_19_2392"><rect width="80" height="80" fill="white" transform="translate(275 1888)"/></clipPath><clipPath id="clip18_19_2392"><rect width="687" height="1844" fill="white" transform="translate(881 124)"/></clipPath><clipPath id="clip19_19_2392"><rect width="80" height="80" fill="white" transform="translate(1049.5 1648)"/></clipPath></defs></svg>