<svg width="100" height="100" viewBox="1309.5 1638 100 100" fill="none" xmlns="http://www.w3.org/2000/svg"><g clip-path="url(#clip18_19_2392)"><path fill-rule="evenodd" clip-rule="evenodd" d="M1391.44 1672C1390.67 1669.11 1388.41 1666.84 1385.55 1666.07C1380.35 1664.67 1359.5 1664.67 1359.5 1664.67C1359.5 1664.67 1338.65 1664.67 1333.45 1666.07C1330.59 1666.84 1328.33 1669.11 1327.56 1672C1326.17 1677.23 1326.17 1688.15 1326.17 1688.15C1326.17 1688.15 1326.17 1699.07 1327.56 1704.3C1328.33 1707.19 1330.59 1709.46 1333.45 1710.23C1338.65 1711.64 1359.5 1711.64 1359.5 1711.64C1359.5 1711.64 1380.35 1711.64 1385.55 1710.23C1388.41 1709.46 1390.67 1707.19 1391.44 1704.3C1392.83 1699.07 1392.83 1688.15 1392.83 1688.15C1392.83 1688.15 1392.83 1677.23 1391.44 1672Z" fill="#D9252A"/><path fill-rule="evenodd" clip-rule="evenodd" d="M1352.68 1698.06L1370.11 1688.15L1352.68 1678.24V1698.06Z" fill="#FFFFFE"/></g><defs><clipPath id="clip0_19_2392"><rect width="830" height="2144" fill="white" transform="translate(35 124)"/></clipPath><clipPath id="clip1_19_2392"><rect width="80" height="80" fill="white" transform="translate(140 154)"/></clipPath><clipPath id="clip2_19_2392"><rect width="80" height="80" fill="white" transform="translate(275 154)"/></clipPath><clipPath id="clip3_19_2392"><rect width="80" height="40" fill="white" transform="translate(409.5 174.315)"/></clipPath><clipPath id="clip4_19_2392"><rect width="80" height="40" fill="white" transform="translate(544.5 174.315)"/></clipPath><clipPath id="clip5_19_2392"><rect x="265" y="279" width="100" height="100" rx="30" fill="white"/></clipPath><clipPath id="clip6_19_2392"><rect x="400" y="279" width="100" height="100" rx="30" fill="white"/></clipPath><clipPath id="clip7_19_2392"><rect width="810" height="322" fill="white" transform="translate(45 727)"/></clipPath><clipPath id="clip8_19_2392"><rect width="391" height="312" fill="white" transform="translate(45 727)"/></clipPath><clipPath id="clip9_19_2392"><rect width="74" height="74" fill="white" transform="translate(747.5 807)"/></clipPath><clipPath id="clip10_19_2392"><rect width="75" height="74" fill="white" transform="translate(480 942)"/></clipPath><clipPath id="clip11_19_2392"><rect width="796" height="312" fill="white" transform="translate(52 1139)"/></clipPath><clipPath id="clip12_19_2392"><rect width="391" height="312" fill="white" transform="translate(52 1139)"/></clipPath><clipPath id="clip13_19_2392"><rect width="391" height="177" fill="white" transform="translate(457 1139)"/></clipPath><clipPath id="clip14_19_2392"><rect width="794" height="717" fill="white" transform="translate(53 1541)"/></clipPath><clipPath id="clip15_19_2392"><rect width="794" height="717" fill="white" transform="translate(53 1541)"/></clipPath><clipPath id="clip16_19_2392"><rect width="80" height="80" fill="white" transform="translate(680 1753)"/></clipPath><clipPath id="clip17_19_2392"><rect width="80" height="80" fill="white" transform="translate(275 1888)"/></clipPath><clipPath id="clip18_19_2392"><rect width="687" height="1844" fill="white" transform="translate(881 124)"/></clipPath><clipPath id="clip19_19_2392"><rect width="80" height="80" fill="white" transform="translate(1049.5 1648)"/></clipPath></defs></svg>